<?xml version="1.0" standalone="no"?><!DOCTYPE svg PUBLIC "-//W3C//DTD SVG 1.1//EN" "http://www.w3.org/Graphics/SVG/1.1/DTD/svg11.dtd"><svg t="1729688927385" class="icon" viewBox="0 0 1030 1024" version="1.1" xmlns="http://www.w3.org/2000/svg" p-id="7674" xmlns:xlink="http://www.w3.org/1999/xlink" width="201.171875" height="200"><path d="M766.346 730.874h14.61q5.969 0.756 7.31 9.78-0.686 9.8-6.645 10.546h-15.275v4.517l3.983 6.775a153.182 153.182 0 0 1 15.275 24.844q4.033 9.8-2.652 15.819-7.32 5.283-12.623-3.791a51.178 51.178 0 0 0-3.983-7.532v61.745q-0.665 9.074-9.296 9.79-8.64-0.756-9.296-9.074v-53.437q-3.972 12.815-7.3 18.824-5.988 9.074-13.288 5.263-7.31-4.507-2.652-14.307a375.066 375.066 0 0 0 22.575-59.486h-17.261q-7.32 0-7.975-9.79 0.665-9.77 7.975-10.536h17.926v-20.286a78.088 78.088 0 0 1-14.609 1.512c-3.983 0-6.422-2.752-7.3-8.288q0-9.77 5.97-11.292 23.25-3.025 42.497-6.05 6.634-1.512 9.306 7.522 1.31 8.308-5.314 11.303a26.416 26.416 0 0 1-11.958 3.024z m88.322-39.16q15.94-1.502 14.61 16.565v127.25h3.982q6.624 0.757 7.3 10.537-0.665 9.78-7.3 10.546h-93.635q-7.3-0.756-7.965-10.546 0.645-9.075 7.965-9.79h9.296v-127.24q0-18.068 13.289-17.322z m-4.033 46.682v-19.57c0.434-3.51-0.665-5.274-3.327-5.274h-35.802c-2.662 0-3.983 1.765-3.983 5.274v19.57z m0 47.437v-25.599h-43.112v25.6z m0 49.696v-27.857h-43.112v27.857z" fill="#DD4B4B" p-id="7675"></path><path d="M801.524 587.462A187.372 187.372 0 1 1 669.03 642.34a186.152 186.152 0 0 1 132.493-54.878m0-40.33c-125.758 0-227.701 101.943-227.701 227.691s101.943 227.701 227.7 227.701 227.702-101.943 227.702-227.7-101.943-227.692-227.701-227.692z" fill="#DD4B4B" p-id="7676"></path><path d="M752.241 1023.768c-139.712 0-226.209-113.256-226.209-252.968S639.288 517.833 779 517.833c61.876 0 113.457 8.166 162.518 44.251V530.83h82.847a21.869 21.869 0 0 0 0-30.943L530.872 6.412a21.879 21.879 0 0 0-30.933 0L6.405 499.916a21.889 21.889 0 0 0 0 30.943H92.68v463.408A29.733 29.733 0 0 0 122.413 1024h111.491V693.982h132.302V1024" fill="#DD4B4B" p-id="7677"></path></svg>